<svg xmlns="http://www.w3.org/2000/svg" viewBox="0 0 430 512"><g id="e0a78cbe-d548-4127-806b-0e0e0c811c9f" data-name="Layer 2"><path d="M386,333.39c-8.62-8.24-12.56-18.15-12.46-30.52-4.16-114.56,35.66-246-114.66-265a44.33,44.33,0,0,0-87.65-.42c-143.57,16-112.21,152.76-114,262,1.09,64-65.6,35-56.45,111.55-8.43,66.79,132.33,81.84,179,82-8-11.06-2.95-39.44-19.76-40-42.62-4.37-81.29-5.47-117.43-30.3l.69-3.64c59.11-33.88,116.45-34.2,185-35.69-89.37,54-10,168.33,66.47,114.63,36.26-26.74,32.55-82.5-2.7-108.59,36.6,5.22,63.78,7.85,96,30.59-16,14.9-33.69,10.89-49,25-2.65,9.9-1.68,26.9-3.88,37.77,34.56-10,94.57-20.8,94.4-66.06C433.22,366.23,419.32,365.26,386,333.39Zm-159.85-.76c-45.58,0-90.77,2-137.43,15.43,10.12-12,18.5-29.37,18.2-55.45.26-16.62-.27-33.75-.77-50.33-1.27-41.38-2.57-84.16,8.82-112.82,7.47-18.8,22-39.4,73.05-42.46l26-1h7.27L242,87c54.73,4,66.57,24.14,73.65,40.48,11.26,26,9.88,65.06,8.42,106.42-.71,20.39-1.46,41.46-.73,62.43,0,12.3,7.5,35,12.66,45.22C336,341.55,271.72,332.63,226.13,332.63Z"/></g></svg>