<svg xmlns="http://www.w3.org/2000/svg" viewBox="0 0 512 512"><g id="e6450b0d-1806-4c5a-ace4-a3cd5f93ce3a" data-name="Layer 2"><path d="M457.53,50,289.85,427.71C281.66,446.18,256.93,462,242.44,462h-188L222.15,84.29C230.34,65.82,255.07,50,269.56,50h188m12.2-50H269.56c-35.73,0-77.42,28.65-93.11,64L6,448c-15.69,35.35.56,64,36.29,64H242.44c35.73,0,77.42-28.65,93.11-64L506,64c15.69-35.35-.56-64-36.29-64Z"/><polygon points="108 318 384 318 492 34 241 27 108 318"/><path d="M80,405c-9,22-34,60,15,58,44-1.79,17,25,17,25L15,471,75,370S89,383,80,405Z"/></g></svg>