<svg id="ed63408b-b526-403e-820f-cc3a9f42d8ef" data-name="Layer 1" xmlns="http://www.w3.org/2000/svg" viewBox="0 0 3052 512"><path d="M209.33,6l-2.69,36.24L161.69,51l30.86,287.2,8.06,69.12,26.16-68.45,100-241.57-4.7-47L270.38,41.6,273.74,6H486.42l-2.68,36.24-49.65,8L462.27,338.2l2,69.12,28.18-68.45L615.91,50.33l-73.8-8L545.46,6H738L734.66,41.6,683,49.66,469,508H369L339.49,200.64,212,508H112.72L45,50.33,0,41.6,4.7,6Z"/><path d="M1064.75,6l-11.4,120.11h-67.1L972.84,53,858.11,45,835.3,216.74,985.58,202l-12.07,75.16L828.59,267.07,805.78,455.63l153-11.4,35.56-91.94,68.43,4.7-23.48,147.63H634l4.7-34.22,52.33-9.4L744.72,49.66l-47.63-7.38,4-36.24Z"/><path d="M1288.83,3.36q41.6-2.68,65.75-2.69,90.59,0,123.45,31.54t32.88,82.54q0,50.33-30.53,81.19t-91.58,45.63q36.23-.66,63.4,12.75t41.6,36.57a92.92,92.92,0,0,1,14.42,50q0,89.92-59.37,130.18t-179.47,40.26q-11.43,0-28.85-1.34t-24.83-2q-31.54-3.36-51-3.35h-95.94l2.68-34.22,45.63-9.4,55-411.34-47.63-7.38,4-36.24h109.36Q1255.29,6,1288.83,3.36Zm-34.22,464.69a223.16,223.16,0,0,0,28.85,2.35q106.68,0,106.68-109.38,0-47.64-22.48-69.79t-74.8-22.14q-26.17,0-42.27,1.34l-26.17,191.91A250.33,250.33,0,0,0,1254.61,468.05Zm17.11-243.59q6.38-.33,11.07-.33h16.11q45.61,0,75.47-24.83t29.86-76.5q0-39.58-19.12-60.06t-56-20.46q-30.87,0-48.31,4l-24.15,177.83A117,117,0,0,0,1271.72,224.46Z"/><path d="M1790.68,44.62q-11.43-3.67-28.18-3.69-34.9,0-55,16.11T1687.35,100q0,33.57,20.8,57.71t72.46,56.37q47,30.19,74.47,65.09t27.51,80.52q.66,41.63-20.8,76.17t-64.74,55.36Q1753.78,512,1691.38,512a422.35,422.35,0,0,1-96.28-10.74q-46-10.72-58.7-21.47l18.78-103.34h67.09l3.36,73.14q24.15,20.82,63.06,20.81,46.3,0,67.43-18.46t21.14-49.32a81.41,81.41,0,0,0-19.12-53.35q-19.12-23.14-66.09-52.67-49.66-31.53-77.83-67.78T1586,144.27q0-68.45,51.33-106.36T1770.55,0q89.22,0,130.83,24.16l-17.45,98.64h-61.72L1812.82,57A69.16,69.16,0,0,0,1790.68,44.62Z"/><path d="M2185.18,6l-4,36.24-56.36,7.38L2071.12,461l57,9.4-2,34.22H1904.06l4.7-34.22,49-9.4,53.68-411.34-47.64-7.38L1967.13,6Z"/><path d="M2662.2,6l-27.51,189.9h-58.37L2571,53l-79.84-8-55,416,91.91,8.72-3.35,34.9h-288.5l4.7-34.9L2322,461l55.69-416-79.84,8-53.68,142.93h-60.38L2216,6Z"/><path d="M3052,6l-11.41,120.11H2973.5L2960.08,53l-114.72-8-22.82,171.78L2972.83,202l-12.08,75.16-144.91-10.07L2793,455.63l153-11.4,35.56-91.94L3050,357l-23.48,147.63H2621.27L2626,470.4l52.34-9.4L2732,49.66l-47.64-7.38,4-36.24Z"/></svg>