<svg id="efc15ccb-86fb-4858-8c8c-717a4c37212a" data-name="Layer 1" xmlns="http://www.w3.org/2000/svg" viewBox="0 0 512 512"><path d="M70.93,1.82,70,14.1l-15.24,3,10.46,97.33L68,137.8l8.87-23.19,33.87-81.87-1.59-15.91-17.51-3,1.14-12h72.07l-.91,12.28L147.1,16.83l9.55,97.55.68,23.42,9.55-23.19,41.83-97.78-25-2.73,1.14-12.28h65.25l-1.14,12-17.5,2.73L158.92,171.91H125.05L115,67.76,71.84,171.91H38.2l-23-155.08L0,13.87l1.59-12Z"/><path d="M360.81,1.82,357,42.52H334.21l-4.55-24.78L290.79,15l-7.73,58.21,50.92-5-4.09,25.47-49.11-3.41-7.73,63.89,51.84-3.86,12.05-31.16,23.19,1.6-8,50H214.85l1.59-11.59L234.17,156,252.36,16.6l-16.14-2.5,1.37-12.28Z"/><path d="M436.75.91Q450.84,0,459,0q30.69,0,41.83,10.69t11.14,28q0,17.06-10.34,27.51t-31,15.46q12.28-.22,21.49,4.32a33.75,33.75,0,0,1,14.09,12.4,31.45,31.45,0,0,1,4.89,16.94q0,30.46-20.12,44.11t-60.82,13.65c-2.58,0-5.83-.16-9.77-.46s-6.75-.53-8.42-.68a170.2,170.2,0,0,0-17.28-1.14H362.17l.91-11.59L378.54,156,397.19,16.6,381,14.1l1.37-12.28h37.06Q425.38,1.82,436.75.91Zm-11.6,157.47a76.1,76.1,0,0,0,9.78.8q36.15,0,36.15-37.07,0-16.14-7.62-23.65T438.11,91q-8.87,0-14.32.45l-8.87,65A85.14,85.14,0,0,0,425.15,158.38ZM431,75.84q2.16-.12,3.75-.12h5.46q15.45,0,25.57-8.41t10.12-25.92q0-13.43-6.48-20.36t-19-6.93A76.45,76.45,0,0,0,434,15.46l-8.19,60.26A41.91,41.91,0,0,0,431,75.84Z"/><path d="M85.9,354.11a31.3,31.3,0,0,0-9.52-1.25q-11.79,0-18.58,5.45a17.6,17.6,0,0,0-6.8,14.5,28.91,28.91,0,0,0,7,19.5q7,8.16,24.48,19,15.87,10.2,25.16,22a42.74,42.74,0,0,1,9.29,27.2,46.37,46.37,0,0,1-7,25.73Q102.67,498,88.05,505t-35.69,7a142.44,142.44,0,0,1-32.53-3.63Q4.31,504.76,0,501.12l6.35-34.91H29l1.13,24.71q8.16,7,21.31,7,15.64,0,22.78-6.24t7.14-16.66a27.5,27.5,0,0,0-6.46-18q-6.47-7.83-22.33-17.8-16.77-10.65-26.29-22.89a45.23,45.23,0,0,1-9.52-28.57q0-23.11,17.34-35.93t45-12.8q30.15,0,44.2,8.16l-5.89,33.32H96.55l-3.17-22.21A23.15,23.15,0,0,0,85.9,354.11Z"/><path d="M219.17,341.08l-1.36,12.24-19,2.49-18.13,139L199.9,498l-.68,11.56h-75L125.79,498l16.55-3.18,18.13-139-16.09-2.49,1.13-12.24Z"/><path d="M380.32,341.08,371,405.23H351.31L349.49,357l-27-2.73L303.94,494.77l31.05,3-1.14,11.79H236.39L238,497.72l27.43-3,18.81-140.55-27,2.73-18.14,48.28H218.72l10.87-64.15Z"/><path d="M512,341.08l-3.85,40.57H485.48L481,357l-38.76-2.73-7.7,58,50.77-5-4.08,25.39-49-3.4L424.51,493l51.68-3.86,12-31.05,23.12,1.58-7.93,49.88H366.49L368.08,498l17.68-3.18,18.13-139-16.09-2.49,1.36-12.24Z"/></svg>