<svg id="becec0c8-1a8e-460a-b39e-7ed08443a293" data-name="Layer 1" xmlns="http://www.w3.org/2000/svg" viewBox="0 0 837 330"><path d="M526,0l-3.69,36.14H500.6l-4.34-22-37.17-2.42L451.7,63.39,500.39,59l-3.92,22.61-46.94-3-7.39,56.73,40.26-3.43,11.51-27.66,22.17,1.42L508.48,150h-122L388,139.7l17-2.82L422.36,13.12,406.93,10.9,408.23,0Z"/><path d="M602.43,0c6.66,16.61,41.27,101.06,45.86,115.91L665,13.12,646.77,10.9,647.86,0h53L699.8,10.9l-13,2.22L664.16,150H626.78c-7.3-18.12-43.11-102.29-47-119.09l-16.47,106,20.22,2.82L582.44,150H524.19l.87-10.3,15.65-2.82L560.27,13.12,542.45,10.9,544.19,0Z"/><path d="M803.66,143.4c-25.45,6.33-56.71,11.9-78.77-2.27C692.57,120,694.48,69.57,709.17,40.25,732.41-5.27,791-5.19,837,6.72l-6.79,31.75H805.79l-.85-21.89C762.47,1.34,736.08,29.17,737,85c.91,36.91,11.79,59.64,52,47.53l5.52-41L773.3,90l1.91-14.2h57.33l-9.34,64.49A124,124,0,0,0,803.66,143.4Z"/><path d="M446.21,180l-.71,10.83-10.14,2.61c1.21,15.39,6.61,82.06,8.53,95.57,4.14-13.48,26.4-63.53,31.74-78.1l-1.25-17.67-11.92-2.61.89-10.63h56.58l-.72,10.83-11.39,2.41C509,208.56,514.77,275.41,514,289c4.5-13,33-81.11,38.51-95.77l-17.81-2.41.89-10.83h53l-.89,10.63L574,193,515.28,330H488.69l-7.85-86.39L446.93,330H420.51L400.67,193.24l-13.78-2.61L388.14,180Z"/><path d="M609.75,310.76c.36,7.7,7.1,3.26,11.25.36l2.32,6.07c-7.8,10.92-25.66,16.95-38.12,9.54a9.44,9.44,0,0,1-4.38-9.9c2.37-18,7.21-44.38,9.64-62.42l-10-5.35,1.42-7.67,34.47-4.64,4.64,2.14-11.07,69.56A12,12,0,0,0,609.75,310.76Zm-8.77-98c-7.61-7.47-5.91-19.65,1-26.63,6.2-6.93,21-9,27.57-1.18,7,7.31,5.1,20.38-1.06,26.95C622.58,218.55,608.08,221,601,212.8Z"/><path d="M812.75,310.76c.36,7.7,7.1,3.26,11.25.36l2.32,6.07c-7.8,10.92-25.66,16.95-38.12,9.54a9.44,9.44,0,0,1-4.38-9.9c2.37-18,7.21-44.38,9.64-62.42l-10-5.35,1.42-7.67,34.47-4.64,4.64,2.14-11.07,69.56A12,12,0,0,0,812.75,310.76Zm-8.77-98c-7.61-7.47-5.91-19.65,1-26.63,6.2-6.93,21-9,27.57-1.18,7,7.31,5.1,20.38-1.06,26.95C825.58,218.55,811.08,221,804,212.8Z"/><path d="M740.17,267.89c7.66,16.26,14.79,30.27,20.36,39.92,5.84,10.67,9.29,8.82,18.75,11.49l-1.21,10.48c-3.5-.71-45.83,2-47.28-2.11-4.6-5.07-5.5-9.79-9.17-18.45-4.9-11.74-14.33-39.49-18.75-47L684.33,281l-4.64,35.68,16.93,2.82-.8,10.28H629.9l1.41-10.28,14.31-2.82L661.75,193.1l-14.11-2.21L648.85,180h65.72l-1.21,10.89-17.54,2.21-8.67,65.72,61.69-65.72-13.31-2.42,1-10.68h49l-1.21,10.89L772,193.1l-46.17,46.17Q729.29,244.72,740.17,267.89Z"/><g id="a6f77abe-13d8-4a23-ba16-876d62a57277" data-name="circle"><path id="a6332782-2368-4c7d-88fa-b8aeeea92f54" data-name="bottomPart" d="M134.5,30.5a134.5,134.5,0,0,1,0,269Z"/><path id="b2454bd8-ab9d-43c6-ba9a-9d78dee45db6" data-name="topPart" d="M134.5,299.5a134.5,134.5,0,0,1,0-269Z"/></g></svg>