<svg id="f884e125-c190-492f-941f-1d0e652c21ae" data-name="Layer 1" xmlns="http://www.w3.org/2000/svg" viewBox="0 0 2397.94 330"><path d="M285.14,0l-7.55,79.5H233.18l-8.89-48.41-75.95-5.33-15.1,113.7,99.49-9.77-8,49.74-95.94-6.66L113.7,297.58,196,290l23.54-60.85,45.3,3.11L249.26,330H0l3.11-22.65,34.64-6.22L73.28,28.87,41.75,24,44.41,0Z"/><path d="M441.27,0c13.61,36.54,84.32,222.34,93.7,255L569.18,28.87,531.88,24,534.1,0H642.47l-2.22,24L613.6,28.87,567.41,330H491c-14.9-39.87-88.08-225-96-262L361.32,301.13l41.31,6.22L400.41,330h-119l1.77-22.65,32-6.22,40-272.26L318.69,24l3.55-24Z"/><path d="M852.49,315.47c-52,13.93-115.9,26.19-161-5-66-46.53-62.14-157.43-32.11-221.95,47.48-100.13,167.27-100,261.21-73.76L906.73,84.63h-49.9l-1.74-48.16C768.32,3,714.38,64.17,716.24,187c1.87,81.2,24.09,131.2,106.31,104.57l11.28-90.25-43.39-3.47,3.91-31.25H911.5L892.41,308.53A238.72,238.72,0,0,0,852.49,315.47Z"/><path d="M1537.75,0l-1.57,23.82-22.31,5.74c2.66,33.88,14.55,180.54,18.78,210.26,9.1-29.65,58.08-139.75,69.82-171.82l-2.75-38.88-26.24-5.74,2-23.38h124.47l-1.58,23.82-25,5.3c2.66,33.72,15.29,180.77,13.67,210.7,9.9-28.57,72.51-178.44,84.74-210.7l-39.2-5.3,2-23.82h116.69l-2,23.38L1819,28.68,1689.71,330H1631.2l-17.27-190.06L1539.32,330h-58.11L1437.55,29.12l-30.3-5.74L1410,0Z"/><path d="M1897.53,287.68c.79,16.92,15.62,7.16,24.75.79l5.11,13.34c-17.16,24-56.46,37.3-83.88,21-7.8-5.18-11.29-13.3-9.62-21.78,5.2-39.59,15.86-119.64,21.21-159.31l-22-11.78,3.15-16.87,75.82-10.2,10.21,4.71-24.35,175A26.16,26.16,0,0,0,1897.53,287.68Zm-20.9-227.25c-14-13.75-10.9-36.19,1.76-49.06C1889.82-1.4,1917-5.14,1929.23,9.19c12.94,13.47,9.41,37.55-2,49.65C1916.45,71,1889.71,75.58,1876.63,60.43Z"/><path d="M2357.53,287.68c.79,16.92,15.62,7.16,24.75.79l5.11,13.34c-17.16,24-56.46,37.3-83.88,21-7.8-5.18-11.29-13.3-9.62-21.78,5.2-39.59,15.86-119.64,21.21-159.31l-22-11.78,3.15-16.87,75.82-10.2,10.21,4.71-24.35,175A26.16,26.16,0,0,0,2357.53,287.68Zm-20.9-227.25c-14-13.75-10.9-36.19,1.76-49.06C2349.82-1.4,2377-5.14,2389.23,9.19c12.94,13.47,9.41,37.55-2,49.65C2376.45,71,2349.71,75.58,2336.63,60.43Z"/><path d="M2184.45,193.37c16.85,35.76,32.54,66.59,44.79,87.81,12.86,23.47,20.44,19.41,41.25,25.28l-2.66,23.06c-7.7-1.56-100.81,4.34-104-4.66-10.14-11.13-12.12-21.53-20.18-40.58-10.78-25.82-31.54-86.87-41.25-103.33l-40.8,41.24-10.2,78.5,37.25,6.21-1.77,22.62h-145L1945,306.9l31.49-6.21,35.48-271.86-31-4.88L1983.54,0h144.58l-2.66,24-38.58,4.88-19.07,144.58L2203.52,28.83l-29.27-5.32L2176.47,0h107.77l-2.66,24-27.06,4.88L2153,130.39Q2160.49,142.36,2184.45,193.37Z"/><g id="e78deeff-1cf6-4cb6-8aea-93c54d95ceba" data-name="circle"><path id="e4642159-bd9f-41f5-b6e2-077db14113c7" data-name="bottomPart" d="M1177,0a165,165,0,0,1,0,330Z"/><path id="a2ea9069-b37f-4572-865d-2afe2e14acbe" data-name="topPart" d="M1177,330a165,165,0,0,1,0-330Z"/></g></svg>