<svg xmlns="http://www.w3.org/2000/svg" viewBox="0 0 512 512"><g id="a9049d1e-8ed8-456e-a1f7-a36a16eb3b65" data-name="Layer 2"><path d="M380.13,4.06,507.94,131.87c5.75,5.76,3.79,16-3.92,20.37l-21.85,12.48c-5.08,2.9-11.16,2.29-14.95-1.5L348.78,44.78c-3.79-3.79-4.4-9.87-1.5-15L359.76,8C364.15.27,374.37-1.69,380.13,4.06Z"/><path d="M314,136.82c8.87,8.87,18.54,18.54,28,28,11.24,11.25,22.76,22.79,33.21,33.23-5.5,28.85-4.71,66-3,109.94.17,4.28.33,8.48.46,12.47C302.68,337.78,225.25,369.32,170.23,394c-21,9.38-40.86,18.73-59,27.58l-6.88-6.89-10-10-9.06-9.05C121.55,326.17,171.07,229,192,139.41l12,.45c15.59.59,33.25,1.26,50.69,1.26,24.75,0,43.83-1.36,59.3-4.3m8.62-53.06a22.17,22.17,0,0,0-7,1.15c-14.42,4.86-37.08,6.21-60.89,6.21-29.83,0-61.48-2.12-81-2.12-1.68,0-3.26,0-4.76,0a22.24,22.24,0,0,0-21.26,17.84C125,235.74,24.54,394.64.81,452.85A8.31,8.31,0,0,0,8.44,464.3a8.57,8.57,0,0,0,2.64-.43C27.3,458.56,55.29,443.77,59,440l10,10c-2.77,2.77-29.45,46.39-31,50-2.43,5.67,3.79,12,9.25,12a6.05,6.05,0,0,0,3.62-1.14c31.39-21.66,223.3-119.57,354.24-146.53A22.24,22.24,0,0,0,423,343.07c.75-32.66-7.33-112.61,4.14-146.65a21.77,21.77,0,0,0-5.2-22.39c-24.55-24.47-59.38-59.44-83.92-83.92a21.66,21.66,0,0,0-15.36-6.35Z"/><rect x="52.07" y="318.5" width="224.86" height="50" transform="translate(-194.71 216.93) rotate(-45)"/><circle cx="262" cy="246" r="48"/></g></svg>