<svg xmlns="http://www.w3.org/2000/svg" viewBox="0 0 512 512"><g id="e1152381-29b7-4ef8-8aed-243f71acb66c" data-name="Layer 2"><path d="M178.5,57A123.49,123.49,0,1,1,91.17,93.17,122.72,122.72,0,0,1,178.5,57m0-55A178.5,178.5,0,1,0,357,180.5,178.5,178.5,0,0,0,178.5,2Z"/><path d="M370.32,313.18h68.86a25.67,25.67,0,0,1,25.67,25.67V496.32a0,0,0,0,1,0,0H344.65a0,0,0,0,1,0,0V338.85a25.67,25.67,0,0,1,25.67-25.67Z" transform="translate(-167.65 404.75) rotate(-45)"/><rect x="320.24" y="260.71" width="40" height="159.07" transform="translate(-140.93 340.24) rotate(-45)"/></g></svg>