<svg xmlns="http://www.w3.org/2000/svg" viewBox="0 0 512 512"><g id="e1ab348d-a8c0-44cf-98a4-fcda5856b876" data-name="Layer 2"><path d="M178.5,57A123.49,123.49,0,1,1,91.17,93.17,122.72,122.72,0,0,1,178.5,57m0-55A178.5,178.5,0,1,0,357,180.5,178.5,178.5,0,0,0,178.5,2Z"/><path d="M416,340.05c-21.39-21.39-2.11,39.35-119.92-78.47l-16.92,16.91-.67.67-16.91,16.91C379.4,413.89,318.67,394.61,340.06,416l91,93.55c3.87,3.87,10.94,3.06,15.79-1.79l30.1-30.1.67-.67,30.1-30.1c4.86-4.86,5.66-11.92,1.79-15.79Z"/></g></svg>