<?xml version="1.0" standalone="no"?>
<!DOCTYPE svg PUBLIC "-//W3C//DTD SVG 20010904//EN"
 "http://www.w3.org/TR/2001/REC-SVG-20010904/DTD/svg10.dtd">
<svg version="1.0" xmlns="http://www.w3.org/2000/svg"
 width="512.000000pt" height="512.000000pt" viewBox="0 0 512.000000 512.000000"
 preserveAspectRatio="xMidYMid meet">
<metadata>
Created by potrace 1.14, written by Peter Selinger 2001-2017
</metadata>
<g transform="translate(0.000000,512.000000) scale(0.100000,-0.100000)"
fill="#000000" stroke="none">
<path d="M1055 5109 c-538 -79 -960 -497 -1041 -1029 -21 -141 -21 -2899 0
-3040 80 -526 500 -946 1026 -1026 141 -21 2899 -21 3040 0 446 68 830 389
975 816 64 187 60 85 60 1725 0 1616 3 1536 -56 1716 -118 367 -410 662 -773
784 -188 63 -68 59 -1691 61 -820 1 -1507 -2 -1540 -7z m1726 -619 c26 -15 24
-42 -6 -70 -24 -23 -25 -27 -25 -167 l0 -143 795 0 795 0 0 -160 0 -160 -795
0 -795 0 0 -145 0 -145 585 0 585 0 0 -800 0 -800 -172 2 -173 3 -3 53 -3 52
-346 0 c-306 0 -344 -2 -333 -15 17 -21 225 -178 340 -257 363 -250 761 -439
1150 -548 63 -18 117 -34 119 -36 7 -7 -164 -396 -177 -401 -7 -3 -70 13 -139
36 -416 138 -826 400 -1333 850 l-95 85 -3 -552 -2 -552 -180 0 -180 0 0 518
0 517 -77 -73 c-313 -296 -681 -531 -1118 -715 -110 -46 -386 -147 -401 -147
-5 0 -174 347 -174 355 0 2 57 22 128 45 594 196 1146 499 1473 809 l84 80
-367 1 -367 0 -3 -77 -3 -78 -172 -3 -173 -2 0 825 0 825 585 0 585 0 0 145 0
145 -805 0 -805 0 0 160 0 160 805 0 805 0 0 195 0 195 186 0 c109 0 193 -4
205 -10z"/>
<path d="M1570 3075 l0 -155 410 0 410 0 0 155 0 155 -410 0 -410 0 0 -155z"/>
<path d="M2750 3075 l0 -155 410 0 410 0 0 155 0 155 -410 0 -410 0 0 -155z"/>
<path d="M1570 2435 l0 -155 410 0 410 0 0 155 0 155 -410 0 -410 0 0 -155z"/>
<path d="M2750 2435 l0 -155 410 0 410 0 0 155 0 155 -410 0 -410 0 0 -155z"/>
</g>
</svg>
